<mxfile host="Electron" modified="2023-05-30T20:22:05.096Z" agent="Mozilla/5.0 (Windows NT 10.0; Win64; x64) AppleWebKit/537.36 (KHTML, like Gecko) draw.io/21.2.8 Chrome/112.0.5615.165 Electron/24.2.0 Safari/537.36" etag="bcBomdU6lBY0_SiLXkR0" version="21.2.8" type="device">
  <diagram name="Seite-1" id="LK_vOsjBv4p4s3tMWC8v">
    <mxGraphModel dx="1100" dy="747" grid="1" gridSize="10" guides="1" tooltips="1" connect="1" arrows="1" fold="1" page="1" pageScale="1" pageWidth="827" pageHeight="1169" math="0" shadow="0">
      <root>
        <mxCell id="0" />
        <mxCell id="1" parent="0" />
        <mxCell id="X-tn8pklyj-x3zhftfe8-1" value="" style="shape=image;verticalLabelPosition=bottom;labelBackgroundColor=default;verticalAlign=top;aspect=fixed;imageAspect=0;image=data:image/png,iVBORw0KGgoAAAANSUhEUgAAA1QAAAKTCAYAAAAe+0nlAABcq0lEQVR4Xuzdh59U1f3/8d/f8Pu2JN8Ue4+dIog06Z3tsAWQKr0XFURFRZGugCiKGrsxNhBRARU1llh/3+hXRU3UJH4130SjIWo8v3mf5SyXc+fOzszO7t47+3o+Hp/Hzs7cafeUez7nlvk//wcAAAAAAAAAAAAAAAAAAAAAAAAAAAAAAAAAAAAAAAAAAAAAAAAAAAAAAAAAAAAAAAAAAAAAAAAAAAAAAAAAAAAAAAAAAAAAAAAAAAAAAAAAAAAAAAAAAAAAAAAAAAAAAAAAAAAAAAAAAAAAAAAAAAAAAAAAAAAAAAAAAAAAAAAAAAAAAAAAAAAAAAAAAAAAAAAAAAAAAAAAAAAAAAAAAAAAAAAAAAAAAAAAAAAAAAAAAAAAAAAAAAAAAAAAAAAAAAAAAAAAAAAAAAAAAAAAAAAAAAAAAAAAAAAAAAAAAAAAAAAAAAAAAAAAAAAAAAAAAAAAAAAAAAAAAAAAAAAAAAAAAAAAAAAAAAAAAAAAAAAAAAAAAAAAAAAAAAAAAAAAAAAAAAAAAAAAAAAAAAAAAAAAAAAAAAAAAAAAAAAAAAAAAAAAAAAAAAAAAAAAAAAAAAAAAAAAAAAAAAAAAAAAAAAAAAAAAAAAAAAAAAAAAAAAAAAAAAAAAAAAAAAAAAAAAAAAAAAAAAAAAAAAAAAAAAAAAAAAAAAAAAAAAAAAAAAAAAAAAAAAAAAAAAAAAAAAAAAAAAAAAAAAAAAAAAAAAAAAAAAAAAAAAAAAAAAAAAAAAAAAAAAAAAAAAAAAAAAAAAAAAAAAAAAAAAAAAAAAAAAAAAAAAAAAAAAAAAAAAAAAAAAAAAAAAAAAAAAAAAAAAAAAAAAAAAAAAAAAAAAAAAAAAAAAAAAAAAAAAAAAAAAAAAAAAAAAAAAAAAAAAAAAAAAAAAAAAAAAAAAAAAAAAAAAAAAAAAAAAAAAAAAAAAAAAAAAAAAAAAAAAAAAAAAAAAAAAAAAAAAAAAAAAAAAAAAAAAAAAAAAAAAAAAAAAAAAAAAAAAAAAAAAAAAAAAAAAAAAAAAAAAAAAAAAAAAAAAAAAAAAAAAAAAAAAAAAAAAAAAAAAAAAAAAAAAAAAAAAAAAAAAAAAAAAAAAAAAAAAAAAAAAAAAAAAAAAAAAAAAAAAAAAAAAAAAAAAAAAAAAAAAAAAAAAAAAAAAAAAAAAAAAAAAAAAAAAAAAAAAAAAAAAAAAAAAAAAAAAAAAAAAAAAAAAAAAAAAAAAAAAAAAAAAAAAAAAAAAAAAAAAAAAAAAAAAAAAAAAAAAAAAAAAAAAAAAAAAAAAAAAAAAAAAAAAAAAAAAAAAAAAAAAAAAAAAAAAAAAAAAAAAAAAAAAAAAAAAAAAAAAAAAAAAAAAAAAAAAAAAAAAAAAAAAAAAAAAAAAAAAAAAAAAAAAAAAAAAAAAAAAAAAAAAAAAAAAAAAAAAAAAAAAAAAAAAAAAAAAAAAAAAAAAAAAAAAAAAAAAAAAAAAAAAAAAAAAAAAAAAAAAAAAAAAAAAAAAAAAAAAAAAAAAAAAAAAAAAAAAAAAAAAAAAAAAAAAAAAAAAAAAAAAAAAAAAAAAAAAAAAAAAAAAAAAAAAAAAAAAAAAAAAAAAAAAAAAAAAAAAAAAAAAAAAAAAAAAAAAAAAAAAAAAAAAAAAAAAAAAAAAAAAAAAAAAAAAAAAAAAAAAAAAAAAAAAAAAAAAAAAAAAAAAAAAAAAAAAAAAAAAAAAAAAAAAAAAAAAAAAAAAAAAAAAAAAAAAAAAAAAAAAAAAAAAACSFAQAAAADk43sSKgAAAADIDwkVACB/n332mVm7dq2pGDHS9Ozb17Tv1KnJodfR6+l19foAAMQYCRUAIHfff/+9Wb5ihemUSn6GXrTY1G25ueAxLPW6nfr2s++j9wMAIIZIqAAAudm/f78ZXF5uek2bHkqCmiP0Pno/vS8AADFDQgUAyJ72FA0sKzMDL1oSSnyaM/R+g8rK2VMFAIgbEioAQPYuW77c9JwyNZTwtEScm3rfZVdd5X8kAABaEwkVACA7n3/+uWnXq1co0WnJ0PvrcwAAEBMkVACA7KxYtcoMWLQolOS0ZOj99TkAAIgJEioAQHYGl5WZuhtvCiU5LRqp99fnAAAgJkioAADZ6Td8eDjB8aLkqhWh+7KN2lSyVHr1NaH7/eg/vMT/aAAAtBYSKgBAdrJJqP796GNsYuTf31goESu7ZqU5rF370GN+9COhAgDEBwkVACA72SRUZ5RXmNobtpgBF15kBl281FStu9ZUrF5rup0/2ZStXG2X0eO9Zs81fRfUn4/VdeIkc0zXrqmEapU5s6Iy9Jp+kFABAGKEhAoAkJ1sEqoR124wpStWmv/7k5/YRGnARYvNyQMHmZrNN5ofn3yyKU8lVz9P/V+VWq79iGrTadRo0/+Ci8xpqSTJPd9/TT9IqAAAMUJCBQDITjYJlYsfn3Kq/dt10vmmfdUIe/vM8grTZfxE8+9HHWX/r1y7zvzoxBMPSaiyCRIqAECMkFABALKTU0J18sn274CLlpijzu5ib59RWmYGLr7Y/OsRR5qRGzbZvVXH9TzXHh546rDhdi+W/zrpgoQKABAjJFQAgOxkm1BVrl1vTujV2/7V/+0qKs05EyaZbpOn2P+VZJ1eUmrOHjveVK671lStv84cf26vrK8QSEIFAIgREioAQHayTaiaO0ioAAAxQkIFAMjOoFJ+2BcAAA8JFQAgO1etXGn6Lay/1Hlrhd7/6tTnAAAgJkioAADZ+fzzz83pPXuGkpyWjDN6nms/BwAAMUFCBQDI7G9/+5u59tprzV133WUuvuJK0/3AxSVaOnqk3nfplVeau+++26xbt8588cUX/kcFAKClkVABANJ79913zezZs01tba157LHH7H3ff/+96Tu8xP5gr5/wNGfo/fqWlNj3lyeffNLU1dWZadOmmTfeeCP4sQEAaEkkVACAQz366KOmpqbGzJkzx+zbt89/2Ozfv9/0SyU3PaZMDSU+zRF6H72f3tf38ccfm8WLF5uKigq7B+2bb77xFwEAoDmRUAEAjPnyyy/N+vXrTWlpqdmwYYP56quv/EUOoT1Fly5fbtr16mUGLLoglAQVIvS6ev3LUu/j9kxFUSKlQwGVWCnB+uijj/xFAABoDiRUANCWBQ/re/zxx/2HG/XZZ5+ZlatXm+GpRKZn376mfadOTQ69jl5Pr6vXz9Wbb75ppk+fbg8JzOc7AQCQAxIqAGiL3GF9c+fONe+//77/cFHQXjddTEN73dasWWP+8pe/+IsAANBUJFQA0Fboan3Bw/q+/vprf5GitWfPHjNq1CgzZcoU8+qrr/oPAwCQLxIqACh2TT2sr5j84Q9/MJdccokpKyszt99+u/nHP/7hLwIAQC5IqACgWO3YsaPhan3Felhfvr799ltz3333mREjRpgFCxaYDz/80F8EAIBskFABQDFxP8Kb7dX6YMxbb71lZs2aZffgbd++vdErCgIAEEBCBQDF4L333ms4rG/nzp3+w8iCks9NmzbZZHTFihXm888/9xcBAMBHQgUASfbYY4/ZJCrqR3iRn+eee86cd955ZuLEiebFF1/0HwYAwCGhAoCk0Z6U6667zu5J0V8O62s+n376qbnyyivtur7pppvM3//+d38RAEDbRkIFAEmhPVDaE6U9UtozhZbzz3/+0zz00EOmurraloGunAgAgCGhAoD40zlRSqJ0jpTOlULrUhnoB5GVXD3wwAM22QIAtFkkVAAQRzqMT1fpKykpsVft09X7EC86/O/mm2+2hwNeccUV5k9/+pO/CACg+JFQAUCc6PeidEiZfj/q0Ucf9R9GTL300ktm0qRJZsyYMWbv3r3+wwCA4kVCBQBx8Pjjj9vD+vR7SJyfk1x//vOfzcqVK+1eq40bN3LBEAAofiRUANBavv7664bD+tavX2++/PJLfxEkmPYwKkmeOXOm+e1vf+s/DAAoDiRUANDSdFifLmqgw/q2b9/uP4wi87vf/c4sXLjQVFVVmfvuu898++23/iIAgOQioQKAlvLEE080HNb3zjvv+A+jyP3jH/8wd9xxhykrKzNLly41n3zyib8IACB5SKgAoDnpsD6dS6NzatatW8dhfbBee+01M3XqVDNq1Cize/du/2EAQHKQUAFAc+CwPmTjr3/9q1m7dq1NuHUe3RdffOEvAgCINxIqACgkDutDvlR36urqzLRp08wbb7zhPwwAiCcSKgBoKvcjvG4vA4f1oSk+/vhjs3jxYlNRUWHuvvtu88033/iLAADig4QKAPK1b98+foQXzUaJ1F133WUTKyVYSrQAALFDQgUAuXrsscfsYX2zZ8/mR3jRInQIoA4F1EUsnnzySf9hAEDrIaEC0HQffvihWbjkYtO/vNJ07N3HnNihY4vET485NnRfc8ePjzra/PCww037HueafuUVZsaChfaKbUBzUftasvQSM6iyynToeW6q/h1mfnL00aG62RzRGm1M0b5Xb9OnrMKcP2++efmVV/xVAgBxQkIFIH/fffedmb1woeleNdKMu/Vus2jvyy0aJ/cfFLqvpWPS3Q+YvhMnm2GVlfbKfkChqH0tuvBCM7Cmzky4reXbl6K125jaV/dxE02f0jLz3r59/ioCgDggoQKQHw32hlRUmrr1m0KDoJaK1h7sBWPWtiftoI9LpKMQ1L4qR1abyZu2hOpaS0Zc2tjMVPvqPHioeWjbNn9VAUBrI6ECkJ9p8xeYmnWtl0wp4jLYc7Hw6RdN6ajRZs+ePf7qAnKy8MILWz2ZUsSpjal9nVs10uymfQGIFxIqALl7d9/7pnPFiNCAp6UjToM9FxelBn0Dhwyxl1IH8vHBBx+YAbWjQnWrNSJubWzBnl+b7v0H0L4AxAkJFYDcTVp4QaucM+VH3AZ7LpbcdIvZvHmzv9qArCy+5JJWO2fKjzi2sfPWbjDX074AxAcJFYDcdR4yPDTIaY2I42BPcdmvXzV1dXX+agOy0r+8IlSnWiti2caeecmUjhjprzYAaC0kVAByd+agIeFBTitELAd7B6Kmts5fbUBWepaWhepTa0Vc25guIQ8AMUFCBSB3pw0cHBrgBKPu+pvN2K13mKrV19n/S6+8xgy/bLk9/+G8m283NdfdEHqOYsyW28zwZVeZ8+950Mx94hlTt+mm0DLByHewN/4X95ouY8aH7s82dHL80EuuMGXLV4YeczGiptZfbUBWug8vDdWnYEy445dm2oM7TJ9Z8+3/0x/eaQZecLG9PX/386bf3EWh5yh0pbyhSy83NRtutP+PXH+9WfDUC6HlgpFPG5u9Y485s6Qi9VmeCz2WbUy661e2L/DvdzGgotJfbQDQWkioAOQuU0I15OJlNiHSYK33zLl2AFdy+Qoz5f5tpuOIWlN+1WozcNGS0PM02Dt9WP1A8qTe/WzSMmrzVlN5zbrQsi7yGey5OLJj59B92UaX8yakkrJ7zIg1G8yAhReFHleQUCFfmRKqyfc+ZAYvvtTePrZrD/t3aqptHXZGO3tbCdLxPXqFnqc4qe8Am3B1nzjVTnjMfWKv6TF5emi5YOTbxvTZ9Pr+/dmGJlMyvTcJFYAYIaECkLuohEpJ0Im9+trbSpBqN25JDay620Gg7vvhcSfYxEp7qfznDlmyzPScPMPeVmI1+sZb7e3je5wbWtZFugGXPkP3SVNt4qbBZd85C82MbU/YJK7H+dPM+fc+aJc7qtPZ9v6zakbVX4552mwz4fb7zKxHd9k9T+eMnWhn/gdduPSQUJL3H8cca19j5vZd5vD2HUOfQUFChXxlSqjOKCm39Va3y65a1XC/6rO7HbzfhfYa/fS0M+ztimvWmrNHj7W3O46sa2gT6SJdG6tYsdZ0mzDZtpthly637Vvtd/CSy+zeaC2jdjv7sadS7WqW3ds0Yu1GO9mixzRJovamPdlVq649pH1pT7aWmfHI42nf2wUJFYAYIaECkLuohGrinfc3JFQufnLKaTZJ0e1/O/zI0HNc9Jo+x/Sff6G93b5iRMPhgkee1dkOrvzlFVEDLiVynWpG20MMNbjUIX46zEmv32f2AruMG4C6PVVK5rRX7ezR48zIdZtM13GTTO9Z8+xgMRhKotz30GGJPzrhxND7K0iokK9MCZUmJfz7FMGEKl0oaTq68zn2tur3maWV9rYODxywcHFoeRfp2pja1eHtOtjb7rA8tS0dhqj2qv+VUGkPlRKv2g1bUn3DL1PteqTdq6t2VX71GnPMOd3M9Id2HtK+tLdNzyehApAgJFQAcheVUGmv0qmDhx1y30l9+jfsofrxz08JPceFZrbdHqqf9xtoB2C6fUyXbnavlr+8ItOA64gOZ9lkSoO6aQ88anpOmWkGX3SJHczp8YaE6sAAUI8roTqhZ287YNR985581t4XDCWNShI1O6/BX9QeNBIq5CtTQuX2jvrRWEKluuySoJLLr25oazpk1U0ypIuoNqZzEHUor9qErrqn9qPDCI/q3MU+3pBQTZxySELVd+7ChskSnWM1duudh7Qv7bXSYyRUABKEhApA7qISKh3ic1y3nofcV50aJGkGXBec0OF37n4d9hM89G/erufMaUOG22TmtKElDfcrMVLy4r+XItOAS4f4ucOaNHuuQ4806OtQWW3fyw0ulbBpIKj31nM00FRCp0OZ3ODOj/4LLrIX1tD5YW5w6AcJFfKVKaHSHlWX8AfjsDPbH/K/9kjpwinB+9qVV9m9xdoLO/VX2+19XcefX58UpXkvRVQb094ou3c2lUxNf/AxOzEx+oZbzE9OPtXuddLeJ/UHavMKHe53Yu++dtLlB8ceb5MxdwhgutDrazLGv98FCRWAGCGhApC7qIRKoXOSdOJ78D6dd6TEKnifTjoPJlgK7fHR+Us6lE7/z3n8aXsuk/8eLqIGewrNyLtBo2bKNbjUniodDqhzo5QQ6X10fodm7DVTPuWXj9jltWdLhyb5rxkMHTalAaR/vwsSKuQrU0KlPbnV124+5D4lH2pfs3bsbrhPbUmHvQaXU7vUuYWq8+4+nUOlpMh/HxeZ2ljwdXRelv7XBIPalfZKac+y2qEuoqEET/dpWU2k6Jwrv5845LXvfsC2VdcX+EFCBSBGSKgA5O70gdG/QzVn59P1M+MZBmkKXfpZiY1/vwvtldL5GRqQ+Y+5yDTYa+0YWUtChfz0KMn8O1S6cIPO5fPvD4YuCqMrUfr3B0N7ixpbJq5tbCAJFYD4IKECkLuOg4eGBjjBUDLU2O/bNBaZZq9dxHWwd1Eqauvq/NUGZKV3aXmoTvmRTftoLLL5nahYtrFnXjJDq/hhXwCxQUIFIHej5s434269OzzQaeGI5WAvFbM33Wg2b97srzYgK3MXL4lF+1LEsY2NXHWt2bBpk7/aAKC1kFAByN1rb79j2h247HJrRhwHe7pgQK+BA81XX33lrzYgK+9/8IHpVjUyVLdaI+LWxtS+OvbuQ/sCECckVADyUzt9pv2xTn/A05IRt8Ge/YHg1EB4z549/uoCcjJj/gJTs25TqI61dMSpjal9dSwtNzueeNJfXQDQmkioAOTn2+++M12HDm/VpCpOgz1dBKDDoCHmoUe2+asKyNl3qfY1qKLSVLdyUhWXNqb2dWq/gea2+3/lryoAaG0kVADyp6RKe6ralZa3yjkfcRjs6fLO55w3wSaX77z3nr+KgLwpqZoyb745q7yqVdqXorXbmNpXl1T7aj9wsPnNb99uWDf33HOPmTNnjtmxY4f5+uuvA2sNAFocCRWA7Ghwp0PZFixYYAczQa//97tm1Jz5puPgYeakbj3MkWe0a5H4wZFHH/K3JUPfs0Pq+1ZMm2F2PvfrQ9YHUEjvvf++mTB/oemcStpbsn0p1LZaq321GzTUDJ8yzdy752nzvb9SUj755BNz8803m/POO8+MGDHCXHXVVeb111/3FwOA5kZCBSDap59+arZu3WrGjBljRo4caTZu3Gg+/PBDf7FWN2rUKP8uAAWSlPb18ssvmyuuuMImV+PGjTO33nqr+eMf/+gvBgCFRkIF4FAvvviiWbp0qR2UTJ061Tz66KPm73//u79YrCRlwAckURLbl64CuG3bNjNjxgxTVVVl5s2bZ3bu3Bn7vgxAIpFQAW3dl19+ae69914zYcIEm0StWLHCvPXWW/5isZbEAR+QFMXQvn7/+9+bLVu2NBweqH7uzTff9BcDgHyQUAFt0dtvv20HFBpYKJHSOVFffPGFv1hiFMOAD4irYmxf2hN/+eWXNxweeNttt5k//elP/mIAkA0SKqAt2L9/v3nsscfMtGnT7ADi4osvNi+88IK/WGIV44APiItib18cHgigiUiogGL10Ucfmc2bN5vq6mozevRoezWsYp2BLfYBH9Ca2lr7Ch4eqIvxXH311eaNN97wFwMAh4QKKBbff/+92bt3r7nwwgtNZWWlmTt3rtm1a5f55ptv/EWLTlsb8AEtqa23r5deeslePVDJFVcPBJAGCRWQZP/7v/9rbr/9druR16F869atM/v27fMXK3ptfcAHNCfa10E6PHD79u1m5syZ9vBATVzpcGoODwTaNBIqIGl0ZSr3WyuTJk0yDz74oN3It2UM+IDmQ/uK9vHHHzf8uLD2YOnHhV999VV/MQDFjYQKiLuvv/7anjB9/vnn2yTqsssuY4PtYcAHNB/aV/Z+85vfmCuvvNImV2PHjrU/jP7JJ5/4iwEoLiRUQBx9+OGHZuPGjXajrJlPHbP/2Wef+YvhAAZ8QPOhfeVHk2E7duwwc+bMsee1zp492/5Quu4HUFRIqIA4+O6778xTTz1lFi5caCoqKuxf/a/70TgGfEDzoX0VhvZUaY+V9lzpaAPtydIeLQCJR0IFtBbtcdKeJ+2B0sZ1w4YN5oMPPvAXQxYY8AHNh/bVPF577TV7zpX6f20HbrrpJvtzFwASh4QKaEnagC5btsxuQHVOlM6N4vCPpmPABzQf2lfz01UCdbVAXTVQhwfqKoK6mmBbv+AQkBAkVEBz0sZQV+HT1fiUROnqfLpKHwqLAR/QfGhfLU+/c6UjGNxPYmjbod/DAhBLJFRAoel3oNavX283gjpWXr8Tpd+LQvNhwAc0H9pX63vjjTfM1VdfbbcrY8aMMVu2bDG///3v/cUAtA4SKqCpvv32W7Nr166GQzUuvPBCs3fvXvPPf/7TXxTNhAEf0HxoX/GiwwMff/xxM3/+fPvjwtOnT7eHj//tb3/zFwXQMkiogHz86U9/sj/mOHr0aFNdXW02b97MbGErYsAHNB/aV7xpe3TbbbfZwwP1UxuXX365efHFF/3FADQfEiogWy+88IJZunSpPeRi2rRp9gTi/fv3+4uhFTDgA5oP7StZdJ7uihUrbHLF4YFAiyChAqJ88cUX5p577jETJkywSZQ2UG+//ba/GGKAAR/QfGhfyeUfHjhjxgyuHggUHgkVEPTWW2/ZxEkJlBIpJVRffvmlvxhihgEf0HxoX8Uj3dUD+XFhoMlIqNC2afbu0UcfNVOnTrUbFx3Sx7HnycOAD2g+tK/i9frrrx/y48I6N/iTTz7xFwOQGQkV2p4PP/zQbNy4seH48q1bt5pPP/3UXwwJwoAPaD60r7ZBPzK/Y8cOM2fOHHt0BoCskVAVg23PPmfKp84w7QcPNSd162GOPKNdbOIHRx4duq+lQuvi7KHDzcQFi8x7739g15U2EgsWLDB79uwx3333nbcmka0Hnt5rSqdMN+1iUueC9ay16pzWw5mDhphhk6eZu3Y/Zf75/ff+agMyejSmfbnaVGu1q3ShddNh8DBTO3ueeeXt//ZXIwrsjXfeNaPmzDcdhwyLVb1UxK1eaptYOnW6eeiZZ/3ViOJGQpVkb737rjk7tVHpct4EM+nuB8yivS/HLk7uPyh0X0vHuFvvNp3Kq8zUefNJoprozXfeMWcNGkqdyxBaL1o/7QYMNr/+f7/1VyEQ8naqL+8yhL4811DffmZJuRk5bYb5lr694LS9rJsxy7QrrbDr2l//cYg41ku3DeiUSq7+XyoZRZtAQpVU9z/0sDkzNWCbue3JUGOOU8Sps6tZt8kMqagkqcrTPQ8+ZE5PlSd1LrvQejql3wBz032/9Fcl0OCBhx+2yTftKv8YsXajOTuVkH7z7bf+6kWetJ3sPqzErlt/fccp4lwv1abPGDDI3PvQQ/7qRfEhoUqi3Xv2mK4VVWbh0y+GGnDcIm6dXW0qqZq1YKG/StGIJ3ftNmeXVVLncgytr/Yl5eaRxx/3Vylg+/LuFSNoVwUIDfxHTJvhr2LkadSMWbFPphRxr5dq213Kq8yu3bv9VYziQkKVNPrtiG79B5gFe34darhxjDh2dj1GVJsPPqg/pwqNU53r0rcfdS7P0Hpr16sPv/uCQ6g+9KAvL2jo0LSXfvuWv6qRI50z1b6sMrR+4xhJqJdq4+f06882oLiRUCXN5s2bzaRrrw812LhGHDs7HQu+4OKL/VWLCNen6tyYtRtC6zGuEcc6V7VyvVm7YaO/atGGqS+fct3mUF2Ja8SxXfmhvr169jx/VSNH581bENtzpvxIQr1UjE1tQ7UtRdEioUqakTU1ZtEzL4Uaa1wjrp1dv7Jyf9UiQvnIaupcUyO1/gZVVPqrFm1YdW2tuYB2VfBoN3CIv6qRo7MGDwut17hGUuqltgGV1dX+qkbxIKFKGju49RuqFwueeiF0X3NENu+Tb2enXeTzdz8fur9QcW5pmb9qEWH4iJGh9edHNnWhEJHN++Rb5+bteq5Zz2XpW1bhr1q0YRXVNaE64kc29b0Qkc375Nuu9Nrzdz8Xur+54pQBg/1VjRzp5x/89epHNnWmqZHNe+RbLxVzn3gmdF9zRklqW4qiRUKVNGWNJFRjb7nLjL7hFtOhqtqM/8U9ZtTmrabv3IXm3GmzIjdqgy+6xAy/bLnpN3eR/f/Ijp1Dyyj0er2mz0m91mwz+7GnzOgbb029/i2h5YKRT2enROq47ueaMVtuCz2WbfSaMdcMu3S5Df8xRc8SEqpsDasaEVp/wVB9U71TWU9/aKepXLneDLpwqa1zUQnKhNvvM0d3Pqfh/6g6V3f9zYfU35rrbrDv5S8XjHzq3JzHnzaHt+tgpty/LfRYtlG9/npz6qChoftd9CGhQkB5dea+fPwv7jV1m24ynWrHmPNuut3M2fm0OX1YacY+d8iSZbYv7ztnof0/ql1NvPN+26bUn896dJd9fb2Xv1ww8mlXGhCf2Luvqd24JfRYtqH2fmzXHg3/6/vr+0Vt00iomu6MgdEJ1dwn9to6NnLdJtNt4hR734CFF5ke508LLXvwOc+Y9hUjzcj19acr2Dp98+2h5bTt1+vo9dT3T394p30vf7lg5FMvFdpGda47L3R/tjFj2xN2nDL1V9vr73vmJTuGUr30l3WhyUkULRKqpMmUUGnjdVbNKHu724TJ9pKdR3TsZP8vu2qV6TN7Qeg5M7fvshs83VYSNu62u23H5y+nOKZLN7sBU0en31jQfV3GjLfJlb+si1w6u9k79jTc7jxqbMaEat6Tz4buczFmyy9sh63bx/folfbzkVBlL1NCpUTE1YWOI+vsnkVX57RRzLQxdMspoupcQ/1dvrJhkHhW9aiMey/zrXOnDRmeMaHKVOcUan/BJNEPEioEZUqoNBGh9qTbPafMbBi0qb/VJJm/vEIJ1/E9zrW3NVBUPxjVro7r1tMOcjWo7VQz2t7Xddwkuz3wl3WRb7vqOv78jAlVY+1KEUwMbZ+QGryWX73G9Jk1P7QsCVXTZUqozh49ziZVmhTrP/9Ce58m1VQ3/WWD0WPydJuE6bbq9LQHHg0t039Bapux7Cp72/X9I9ZssGXtL+sil3qpuuYuAqNJhEwJVTb18pSBQw8mVKmo2XCjHXv5y7kgoSpqJFRJkymhUtLUe+Zce3vSXb+yhzD9xzHH2v/Hbr3D/LzfwNBzqlZdm9ro1g+YtVdHg2A9119O8a+HHW7/qiN0Gzh1fm7PVrpI19kpUdJrqVPWLJE6IX0GzV6d0LO3Xebs0fUJlRIrfSadIGvfM7Uh1f/DLr3SnJzacGq2Uq8RDM0Qaa+GXueM4WX29f3PQEKVvUwJlcpi6CVX2NuqN0pIDm/f0f5ftfo6m6T7z3FxVKezG26nq3PaoP3g2OPsbQ38XP1VYlVy+YrQ8i7S1Tld/vcHxx5vN6aalVd9Ut3Qxlr1SMucNrTETL73IbsXQG1Jz9F7KnnThn7goiWmQ2W13RMVrG+Dl1xmn69BMAkVspUpoVK/3HPyDHs72DbOGTspMqFSvTx9aKm93W/eBXYCLV27Uri+XJNuPzv9THtbg1a1DX9ZF+na1ditd5r/+5Of2YmVIRcvs22mw4ga25dr9l7LaICphEqJlRIgDcS1N1iPDVi42G5DTurT3x7x4PflbuLE9RWa0PuPo9027U77PP8zkVA1XVRCpTGF6+PU351/74P2trbVjSVUPafObEioouql6pjbA/ufJ/7cjhHUZx95Vvo9re45/n2aGPjxz0+x2/7pDz5mxxEll19t+/ETzu1jxzAuodJfvb6e858nnWy3O2oLOtLi6LO72j2kfr08/576761JuGBCpXpOQtVmkVAlTaaESg3Zze4o1DGoU9JtzVamS6jUaWjGX7eViGjQ6C/j4t+POsb+1aDZdXA6TEQDU39ZF+k6O4UOjVKn6j6vDifUAPynp51h/3cJlQbOGrTrPm1UNROmx7TB1oyXBhd+Z6eO230PDZJrN4RnR0mospcpoWpXXmWqrz14pbIpv3ykYYOruqXBlf8cF8GEKl3Y+pvawOm26oKrS6VXXtOwVyxdRNU5zd7rMA1X5zQg08DVDe5UV1S3NUGghErLqs1o42oHA6k6p8NdSahQCJkSKs3gu3oVjMYSKrVH3dakg9ujmy5cXz7jkcfNYWe0s7c1sDwlYiCtiGpXZ5SU2yMbNGDV/zpUUYnVT045zf7vEqqKa9Y27FFS29dAVdueg315eHIsXUL1oxNOsrc1yXJS3wGhz0NC1XRRCZWSYXdESzByTaiiQv2tJn91+4fHn2gTON12E8PpIqpeVqxYa+uV6uKsHbvN1FTfrrGA3kPjiOAeKle/tI3QdkeJuuqlxh7avvn1koQKaZBQJU2mhEqdh/bcBO9zewvs3qtZ80LP0TkvLtHS3oRM56eo09FskQ75025/3afOyiVk6SKqs9PGUHsGXAer25qNch2bS6hKr7im4bACJXEaTLg9auog/ddVqFNzA27NknLIX9NkSqjcbLT7X0mF23vp9iT6z3HRWEKlaKi/y1c2DMaGLr3cbpz9ZV1E1TklT5rB1+SCPqfqveqz+xwNCdW8C2zS5hIqtR13rkCmQwJJqJCLTAmVjjTQua3+/ZkSKnv4dq/6wa4Giho0+su40OHbGqyqH3aHFqrfdH1ruohqV0qg1E40Iab/dRiU9lgd1bmL/d8lVJXXrGs4gkJ9uQbObo+a7cszXPEw2Fcc0eEs+9fuUZtR/3rBIKFquqiESomEO4okGIVKqDRGUX+r226iS6Hkyl/WRVS9VH3Sa7gJNE0Yq+3Ut6FDEyo3QayESuOQn556ut02qE9Pd2iiCxIqBJBQJU2mhEqdWveJUw+5T7OCGtieM3Zi5BVt1NGo0wmeTKkNnPZuBS8qoM5CG0QduqFDRXTfwAsuthtK/zVdRHZ2qdAskHt97ZlS4qRZTW1o1bFp9/zEO39pO0WdbP3D406wgwYNBrSB1Xv7r+lCnbtmTHVIif+YgoQqe5kSqvr6deg6VlkptOGKukrThDt+af7lZ4fZ8nX36TA8l0A1vP6K+tevr7977X06aVlJkf+aLiLrXGoD6w4R0sZS9VuzjT8++ZT6907VMyVu2uhqA6t2c9iZ7e1J+z9L1U+ddxJ1kROFZj91OFJwAxsMEioEZUqoVB/9vbA6L0mHK6VLIlyof9Z5i+5wQYVO7P/RCSce8gPCOrxO/b0mCjSppvs0UaEJLP81XUS2q731exZcW1c70iHXGpQqYdMeDQ2UdTit9oYNXnxpfV+e2oZowksTMG7SLF1o79e//PRnDXsFtL3JtE0joWq6qIRKfag7Ty8YKl/dHzx3LhhKsFV//GTjmHO6HZL4azmd06d+2SXomhA9NcNl3DPVSyVx7lxs1Rcdsq0kXm1I76E+XXuklKTrPtVdfR7VR+0V04Sh20vmh9qVtg/Bo4L0fqrvOp/RX15BQlXUSKiSJlNCpVCyE3VltVxDh9s19lo2gcsws5ipswtu4LOJTBciyDVIqLKXKaFS2etk9tD9eUZw45Q2Uu/n9hZFRaHqnOp+Y/U/lyChQlCmhEqheh41IZFraKKgsdfqPmlqxvpeqHalKGRf7gcJVdNFJlSp0FEHmhDz788ntMc/01UrFZrE0lUp/ftdJKVeKkioihoJVdJUNvLbJZrFj7r8rWZi/GOBdbiGv1z96zzTsBcqKjRz2NgymTq71ozepfywb7b02xn++guGjk+P2mOkvTt+nXMnMvuhmUi9ln9/MDTbqFlM//5gxLXO9S/nh31xUJV+pD1NPXGhmfGoq+Np4Oe3K+3V8pdTaJugc6X8+4Ohc2M04+7fH4y4tis/ThtIQtVU7QZH//yDQhd7iEo+dNRCsF5mOoJl8n0Ph+4Lhg671vnV/v3BSEq9VGhCHEWLhCppamprzeJnww01rhHXzm5gBYPbbI1IDfwuyLAXMm4RyzqXWn9Dq6r8VYs2rLauzix59jfhuhLTiGW7ShMdU8kAmqbL0OGh9RrXSEq91DZ0ZE2tv6pRPEiokmbz5s1m3vXp90DFMeLY2U38xd3m4ksv9VctIqjOTd1w8Ep+cY841rna1deaTddf769atGFqVwtuoC8vZGgv3bj5C/1VjRxNXnRh5B7PuEUS6qVixsYbbJtH0SKhSpqvvvrK9Bs82CzM8djg1oo4dnaD60abDz74wF+1iKA613vgoJyPR2+tiFud03o7p29/ux4BR/Whf6ovX9TIuU1xibi1q3TRqbzKvPPePn9VI0fvvf++6ZLhio9xiiTUS43X+gwaxDaguJFQJdGePXvM4Jq6jCcQxyXi1tlN0969Cy/0VykaoTrXb2QNdS7H0PrqlhqY7Nq921+lgG1XQ2pH0a4KENXrNpnJc+f5qxh5mjF/galt5DLncYi410u17QHVtbato6iRUCXV9u3bTc/hJY1eFKK1I06dnZKpqupq89133/mrE1nYtm2b6Tp0OHUuy9B6OmvQEPPAw4/4qxJooL783OGltKsmRE1q4D+oopK+vYC0LodWVplRgd8ZjGPEuV6qTXcbNtxsS7VxFD0SqiR7//33zaDyCtN7/Plm0t0PhBpzHCIOnd2E2+42g2pH2T1TbHCbRnVuQFm5OXfcJOpcRGi9dBs70fQqKTXv7uPwIzRO7WpweaXpPYG+PJfQeT7dKkeaGQsW0Lc3A63T2QsXmZ5V1bE9pyqO9VJt+Nzxk8zA1LZSbRttAglVMXjl1VfNtAULTd+yCtOhVx9zYoeOoTihXXvzo8OPMD8+6ujQY4WOnx5zbNrbLR2d+vQ1gyurzJJLLjEffvihv9rQBKpzU+YvyFjn8omjTz2tyXU02zqn99H7+ffnG+179ba/NTVx7nzz0iuv+KsMaNSrr73WaF/elDj6lFPzbl/Ztqtg2DaWek///qZGx9597M8QzF+8hL69BWgdL1pyselfUWnO6l34etmU+Lcf/WfovuaKnxx9tPnhzw4zx5/ZLvSYQm1WbXdqatuobSTaFBKqYvfpp5+apUuXmqqqKvPwww/7DzeLUaNG+XcBjdq7d68pLy83f/7zn/2HmoXeR++n9wWK3c6dO01lZaX5y1/+4j/UbPRe2vbs2LHDfwgoiJYeb+zevdu+55QpU8wrTJzhIBKqYvXWW2+ZqVOnmrFjx7Z4o2/pDg7Jd8cdd5iJEyeab775xn+oWen99L56f6BYrVu3zsydO7dVDovTe86fP9+sXLnSfwhostYab/zhD38wl112mSktLTW33HKL2b9/v78I2hYSqmKj2ZPa2lozb9488/HHH/sPt4jW6uCQTJdeeqlZtmyZf3eL0vvrcwDFRBMGmkm/8cYb/Yda3NatW82kSZPMP/7xD/8hIG+tPd7QhMGvfvUrU11dbSct3n33XX8RtA0kVMXg22+/NXfeeacpKSkxq1evNl9++aW/SItq7Q4OyaCB1fjx481dd93lP9Qq9Dn0eRjwoRjocG/Nnj/zzDP+Q63m+eeft9upP/7xj/5DQF7iNN547733bFKl5EpJVmvsEUarIaFKsi+++MIeRqEN1N133x2bxhunDg7x9Nlnn5mysjLz3HPP+Q+1Kn0efS59PiCpXnvtNTN06FDzu9/9zn+o1X300Udm2LBh5uWXX/YfAnIWx/GGDv+79dZb7bZERz588skn/iIoPiRUSaQNkg7p06F9Tz31lP9wq4tjB4f4ePvtt+1gL66Xk9Xn0ufT5wSS5r777rN98FdffeU/FBtff/21Pb83LnunkVxxH2+8+uqr9nx2fc4nnnjCfxjFg4QqSdQwtRFS49RFJ+Iq7h0cWs+uXbvslcb++te/+g/Fij6fPqc+L5AE33//vb2ia5LOBbziiivM4sWL7WcH8pGU8YaOKLr22mvtYbirVq1qsavZosWQUCXBtm3b7KVnL774YntcfNwlpYNDy9qyZYuZNm1abA5NbYw+pz6vPjcQZ3/7299MXV2duf/++/2HYu/BBx+0R1u09rm/SKYkjjeefvppM2bMGHuF2RdffNF/GMlEQhVXOjH+pptusudHbdiwwfz973/3F4mtJHZwaD6afV60aJG9YEoS6XPr8zOLjjj64IMP7CGqr7/+uv9QYrz55puxPgwY8ZXk8YYmyJcvX273Wt1www32UFgkFglV3Gg3sA6D0A+O6ioxSRzEJbmDQ2HpPA7NnLfUj0o3F31+fY84n5eCtmfPnj32xPf/+Z//8R9KHF0IRts9/fQHkK1iGG9onPfII4+YmpoaM3PmTPNf//Vf/iKIPxKquNi3b5+ZNWuW7RxeeOEF/+FEKYYODk2nKxvpal664lgx0PfQ9+GKTYiDTZs2menTp9ufzSgW+i76Ths3bvQfAtIqtvGGrsypIyJ0Dq+u3tzSP3aPvJFQtTYlT+oQlEwpqSoGxdbBIXfFmnwUW5KI5HFJhxKqYqWEqtiSRTSPYh1vKJFSQqXESglWHH8CAYcgoWoN2r2rw/l0eIMO7yu2q70UaweH7BT74XHFchgjkkeH9ukQPx3qV+x06J+2kfwmHDJpC+MNHQKoQwF1SKAODUziqSBtAAlVS9KFJXSBCV1oQhec0IUnilFb6OCQXlu5gEPSL7SB5NFFJ3ThBl2Eoq1wvwmni1YA6bSl8YYuWqGLV+giFrqYRRKu+tyGkFC1BFV6XfJclz7XJdCLXVvq4FCvrV5iPGmXgkcy6XLo2iuqy6O3Nbqcui6rrsurA762Ot7Q5dZ12XVdfl2XYUerI6FqTvrxXf0Ir36MVz/K21a01Q6urWrrP4KblB8rRjLph3r1g73Fvtc3E333JUuW2EPkgaC2Pt7QKSP6oWDttdIPB+sHhNEqSKiaw1NPPWVn1ObNm2c++ugj/+Gi19Y7uLbEHZLz9ttv+w+1Kfr+/I4OCknn6qkvve+++/yH2qy77rrLTlDyez1wGG8c9MQTT9j1oYn8tjSJHxMkVIWiQ350RRadH7Vy5co2PUtAB9c2PPfcc/YEeU4ar6f1oPWh9QI0ha7opQSdq0mGvfzyy/ZKm21xshJhjDfCdDVa7dnW9ujWW281+/fv9xdB4ZFQNZWO79aJ6Uqk7rzzTi7zaujg2gLNFI8fP75oL6ySL60PrRetHyAfzzzzjD18hxPOo/3xj3+029znn3/efwhtDOONaJro1xWlq6urzdy5c817773nL4LCIaHK18cff2wP6dOhffyy+6Ho4IrbsmXL7OwXomn9aD0BubjxxhvNlClT+DHPLGjyYtKkSWbr1q3+Q2hDGG9k591337VJlZIrJVlcSKngSKhy9corr9hjuHWMqi46gTA6uOKkQZ6uKnTHHXf4DyENrSetLwbHaIwGNxrsrFu3zn8IjdAh9vPnz2eA2EYx3siNDv+75ZZb7F7wyy67zPzhD3/wF0F+SKiypR/x1GXPdbUlDsXIjA6u+OhKQvqRzb179/oPIQOtL623YvvxbhTOX/7yF3uVyJ07d/oPIUs7duyw22etS7QtjDfypx0E2iOudciRVk2WOaHSSdbXrFljSkaMNL0HDDQdz+6SmDj2+BNC9+UbRx93nDniqKNN+06dQ4+lC62r8pHVZu3atQU/YV9Xfrr++uvNyJra2JZJpnWf6bHmDlcum1LrT+uxkFTOKm+9flzLJVM0Vi5HH3ucOe3MdqH7myO0/ipS61H1vNDl5NpPVXVNi5WT1pvWn39/PtFYObVkaP2VjRxpVjdjP9eS5VTIyKWcVDdOPePM0P3NGb0HDrTbkOZoY6oLa1J1QnWjJctO67AQ7SyXsmvpaM42J3rNlQkb87nyinO5KbQ+K6ubd7um18+n3Nqd1ckcdsSRqbHu8aHHWiLiXHZan2oPaheNtLn0CZV+82Hp1SvMWYOGmtrrbjCL9r6cuDi5/6DQfS0d466/yfQcXmpWrl5dkN8Q0eXYew8cZKZcd71Z9MxLofdLQrR6uaTW2+g115kuffuZXbv3+Ks4ZyrXVavXmF6pcp5w/c3h90tItHq5+JEqpzFrN5hz+vY3u/c0vZxE7adH/wFmwvpNtJ8CxuiNN5puQ4ebq1etKkg/tydVTt1T5TR+3UbKqRnjgtS6nb7hBtNn0CDbNppKZX9NalvXY1iJGbtpS+j9khJJKLtCtzm9xqWpMV+nwakx34YbQ++XhEhCuak/G5varnXrV7jtmvrLbqn+clzqdekvmy+UC6l9KDeKaHPhhOrv+/ebvhWVpmTZVaEXTFLEqYBqrlppqmrrmnTpym3btpm+I6rNgj2/Dr1+kiIu5aL12Lm0wtzzwEP+qs6aynNEXZ2pu2pV6PWTFnEpFz9UTmeXVZh7H8y/nOShR7aZHpUjaD/NGJVXrjBl1TVN6ucefOQR072iinJqwdC6HjCyxmzbvt0vjqypzCtqas3IK1eGXj9pkaSyK0Sb03P7pdocY76WC7W5c8qrzP0PPewXR04eePhh07Wc/rIlQ+1EOVKaNndoQqWsq095pRm1+ZbQiyQt4lZA47fcZgffEZltRvv27TPnDB1mFj79Yuh1kxZxKhetz9NTn+f1t//bX+WNUjmOrBtlJt30i9DrJjHiVC5+qJzOSH2+N//7Hb8YsvLOe+/Zve20n+aP8264xQ7w8unn3nn3XdNh0BDKqRVC67z7sOF2W5MrlXVlba0Ze+OtoddNYiSt7JrS5vQcDQ4Z87V8qM21GzDYvPVOftu1t99517QfOJj+shVC7UW5ktfmDk2oLrxyuRl+2fLQk5MYcSyg0VevMqvXrAmu8qz0Lys3M7Y9EXq9JEbcykXr9azUIC5XOkdg7IrVoddLasStXPxQOWl3ez502C3tp+Wi6ooVZsXq1X4xNKr7sBLKqRVD635QeYVfLI1aldqm1Sy/JvR6SY0klp3anA63zNXi5Vcz5mvFUJvTZHk+ug4dTn/ZiqF2o5wp4GBC9dnnn5szU9my/6SkRlwLqF9pufk8ta6z9ZtXXjE9x58fep2kRhzL5ZyxE839T2V/9TqV34BUkuu/TpIjjuXih8rpoWee9Ysjo70vvWy6jZsYeq2kRhLKSaHzaHLp55564UXTdSzl1NrRe8Jk88qrr/rFE0ll3LukLPQ6SY6kll3P4bm1OS2rPRz+6yQ1klpu2q49/vyv/eLJaNevX7DP818rqZHUslPOFGhzBxOqS1esNDUJvQBFuohrAc25+Tazfv16t9obdf68+WbSXb8KvU5SI47lovU7fMo0f9VHUvktuOWO0OskOeJYLn6onEqnTveLI6PRs+bQflohxl9/s1mXQz9XN3M25RSDUBlMW7DQL55I6gun3pj8w8WCkdSy00WRcmlzy1auYswXg1CbGzF9pl88GVXPmEV/GYNQ+1HudMDBhGpAeUVirxCSLuJaQIuf/Y2pq6tzq71RvUuZ/WuJOHNg9of9qfwuff7V0GskOeJaLn60y/HwzK7DSkKvkeRISjlpW6JLnmery9Dh4ddIcCSmnNJE37Jyv3gi1dTW2qsF+q+R5Ehs2aXKYURN9m1uYEUlY76YxFlDcjvsr/MQ+stYRKr9KHc64GBC1aesIrxwIHQVkcn3PmTGbKk/CX/erudM1aprzdwnngkt62L6g4+ZkesyX6J43G13m7Fb62f7p96/zUx/eGdoGcXMbU+aEWs22BPwZu/YY6Y/lH45F/kW0NRfbTcVK9aG7s8l6q6/2Zx/z4Oh+13U5JBQ9WjkcAqt/2kPPJoql9vs/1o3Vauvy3jVlym/fMTUNHJp1Fk7dtvX1W3NhMx+7KnQMoppD+4wI9dfb2+r7PQ8f5lg5Fsuk+5+oL4upXks21DZav349ytOHTDYX/WR9CN4/vP9UPmrPmv96P9xt6qe3xlaLhhaPmo9K+Y9+ewhbc61xXRRu3GLba+6PfHOX4Ye9yOfclFbLFu+ssnHcY//xT0H/0/1FapPbr35cXoOia90bmSgrn5FfYkrG91urM9SOZx/b3T7Vujzz3p0l7099pa7Ituj6on6C92efN/DZv7u50LLBCOfclKcd/PtZnQTLxow4fb7DjkBWvVQn9lfzkV5dbVfHJE6NTJAmPHI47ZstL3Q//oc+jz+csHQelf49wejWnXtQD+n7VDUCd4T77zfjL6hfk+Myj6qPF3kW04qo/Nuuj10fy5xSHvaW/+93HpTBLel/nMVvUqzT6hG1NSGnu+H1p36b7dtmLl9lx0b+Mu50OcasXZjo/1Kw/dMtdXIdeb1J83VF87f/bwZuvTyRttvpvDr9IKnXrDlpPXl7muszVXkMInRT5PoaV7DhT6P6robWyj8upUuGltmwh2/bHhNlYtrf36o/7RjmdR6mLPz6chtgot8yk2h1y2/qmnnQ4fqdKrejf/FvQ3/N1an2+d4fnDHwcNCrxEMfRb1l+4z2Lp1R+a6r7GHxiD+/cFQfdD2T7dtm4vYTup9XZvUNk5l6C8TjHzLTtvOxvr4xsKvr8Gxb9QywVDudEB2CZUKo/eseXbl/fTU0+19Zwwvs437zNLKtB2zKk7HkXW2UM8ePTb0uEIbs0EXLrUJTOmV15j+8y80gxdfGlpu7hN7TbuySjsY7jCixt6n5fwvHYx8C0iFf1z3c0P3ZxsDFi42tRu2mL5zFtpBjP+4olAJlTrvvnMX2tsqF23kVS5zHn/atCuvCi2v0Iat24TJtuM+d9qs0OMKNZjTUgMclYn+73LeBNsZ+MspgTqrZpQtBy2j+/R5opIWRb7lonWquubfn22okRzevuMhnVwwckmo6hpJqLQBV9mrbg9YeJHdKA5ZssyUXbUqsuPWxuPwdh0ybvBPH1Z6SJtzbdGPPrMX2A1Wr+lzbEegtqh66S8XjHzKRfVNz4tap9mEBqmHndm+4X/VIyX8XcaMT7sBLWRCpUG6ykV91PE9zrUbRfUvqtedR6Xvs7RhOHv0uPr+MM3jCtX/Izt2bujof95vYENyGww9fu602XYQrb5PZar/M2188iknheqi6oN/f7ahsvi3I460A0f9r7LvVDPafm5/WRf6ketsZUqo1L8Mu/RKuw61LnVf6RXXmJP6Dggt60IDsSEXL7N9WNQEWddxk+wAQeciaCChfj/dhJ7KR/25Du/QdseVU7rtnot8y6nf3EWm37wLQvdnG5o0+pefHdbwv7778GVXpdbfcrtO1H/421I/CplQacJF67jbxCmm8pp1dlt+cqqvrbgmfZkoOo6otUmfPl/UBJMmQH5y8qn2tuqk+k5/GYXfn2j7rnXhLxeMfMpOE8xHdOwU+XmzCdXVk/r0b/i/Q2W13W7pr7bp+p5nVY8y/RdcFHqui1wmMTImVKmxnvq44HZGiZz6gNCygdBk1NFndw3d76Ju003282s8MfSSK8zgiy5J+300tjmjpNwmUu0rRtr7lLBmSibzKTeF6sVRnc4O3Z9tqE6fktouBfuZypXr7TbF/a+xcEOdTjM+yjWh6pAhodI6Uv+oSRSNGXTf4CWXmdOH1t9OF6q/6he0jv3HXGgc8eOfn9KwXT7yrM62XvrLabJ+4KIldvJXfY+2Feovo5IvRb5l13PqTPvd/PuzDfUN/3b4wTqtsa/WWcnlKxru03ju6M7nhJ7rIueEShszdca6rUamzNMVlAYebg9FMLQC1WB0W52dCsxf5phzutlMWh3Fz04/0w6a0800aYW5AcyxXXvYAZAaXKYKkq6A9Bm0kR21eautCFppdk9b6rupk9Xn0ArVhlUbAVUG/a/HNNhyswyqrFpW3zsYes5/nvhz+14ayJ4aUekLlVBpgORmHrV+1KDPGTvJ/q8Gnm5GQg27+trN9vaPTz4l9LgLDZRcQqXvn26PYM/JM1Lr8Gp7W+WndaJBqjp9f1kX6cpFHYwGKhpgaj1r/aoRukRb612JoBIJrVdtjPUcNX6Vn1tW5ahy9cvFJd4dqqojB/8FS6hSnYaSUd1WUqMZlKM6d7GdkT5rMHnwo33FiMiESq+lDYxud6odY8swalDv6qD2YLkkVEl0pmOu05WL3lPtRetUlwlV+Wi2WYmh26usDYTKRGWmwYrud3sS9b+uhKNOS9/LLxf3Pm5jpnJ0G28lnt0nTQ19pkImVHagsrN+g6B12XvmXJtg6X8l39pQ+s9RaGAYte5dqA24hKrPrPlpNybqv9yki2uL6ps0qPaXdZGunNSHKmFS/6MBtTbmGtipnFy/rb/qL/T62uDpOW7jqXWgdqa6qvbrl5Pb03Zs1+4NCZVCg+WWSKhUh9V21A9oskD3qZ/IlFBpY69l1H+nG2wraXUDcpWnkquoMlUSZ9tlqgzdc7ReNBj0l3WRrpyUtKmcpqT+atCjiRYNmFVOuq1ltE6VUGlbqMGnSyb1mJZVO9MkhN2T6pWTG6jpu7v31HdXEqXH1M60LbX1ce/Bban/OQuVUKnMXP+j+qXvrdt6/6iESnXNfX4NyjJNBAUHwenKLtifaB27/kTbAVen00W6slMyrXLQa2pd274u1b5VHq5fPeHcPjYhV5+n9aryc5cj13ZH4yFtB/S8YLlpOS2jz+QSKr2OS0w0SekmmvV+6RIQF4VKqLS+FLodXLfBupUu1EYzJVQn9uprJ0Zcoma3kQe+fzA0rtD4wj6nd1/bXvScqDGVIl25uT2HOmJD/bkb82kcp/J041LVJW2n6seBz9kyVF/o9nDq87iyD4bGJXq++qVgQqX3cgmVrdMdD9TpCy62k6z+5yxkQqWxufo3fXc3OaO2l2m8rFAdy5RQKU4ZOLQhoUrX5hQaP6uv02f42Wln2PvKr15jx9P+si7SlZ3qifpLvZ89Qim1vpWUql7qtpbR+ER9mnbOaOJL39O9j5ZVe1FOoX7ULzuXDPrJtPqcYEJl63QhEyq3gnTbVTa310mVXpXEf86ZJRUNezU0oEx3iMy/H3lUw2ysskTdTjfrpxlEl5xpdst1UmqQ6Za3y6UpIIUqvgpJz9NrakNmBwapTkrfyyVUWvaIDmfZv5qJVaEoSVTHqO+mglSBB0MbvH897HD7HBVgug25olAJ1U9OOa3h0BOViwaEbo+VBosaWPnPOa5bz4ak4gfHHm+f5y+j0PpwCVXUMqcNLWlIzrSuXB3JlKhFlYsS8/oZ1L22PDSw1QBPCaIGFy6hcu+lvxroaMPVfeJU+/jxPXrZ8vTLxQ2a6wf/zZtQaebUJVSqY6rTdgbkwIA6OBvih2biohIqdf6aZdXtHudPs3U4XbnoPd0sojb6riNQWboNVLpIVy56/Z8e6BDVMaltaBZL/2s2Vn/dOtXnUZmp/DRQ08Chx+TpdvDww+NOsJ2bXy7ufVyHps5QiYxuawCTbgNQyITKJZ4KfVft1XUJyDFdukUmoGpXURsTF9pz6xKqdOWkUP+gBEi3Xb2ISgBcpCsnhQYqKm/1s2o3ahPaENk2kkqeXEKl9uL28rgyVL1SeShZUFn65eQO8QglVKkNW0skVH456W9jCdW/HnZExjandXLYGe3sba2vUwcNjSwnrRd32JV7Lf2faSMbVU6aRFS5aD1r8kF7UPRaJ/TsXZ9cHUiotN5d/XeDMe0Z1f0/OuEkWzf9cnKfPzhAcNsjhfoFvV/DtjT1Gd1hjMEoVEJVP8FXfyWyYL2xg8+IhEqTQC6p0CA26ugWRfB7pis79SduWxHsT/T+2n77y7tIV3bqv1wyofWnflZ9od7XJRBKqDSRob1xGuBp8knLqE9XmWpbqc+jNhgsN7fdDCZUqpMa69j3Sw1ylfDrtj2SpwUSKrUtfX7dDq5bf/DpR2MJ1Y9OOLFhIKu25LaR/nLaxrlxpRIEN87QhGS6slakKzeFEnM7SZXqD1xyZfeOpQbiblLEfS9XX+y4I7Wckn8drq/tnF7Hb3MuMdce7KiESmNHJYW6rYF6uqMfCpVQaX0Gx19uXWWVUKXWR2MJlfpJl1BFlcN/HHNsw2Ouv9T7q334y7qIKjv1feoflXirHWm7qnWrOqb30OfV59aOBU2U6Dl2u5Yqa/Ud2h7+4NjjbLLsl53rk/w6rXJu1oTqP086uWGjqtCgVV9Mt9VhaiPgP0dfRjN/uq1GkO7cGiUEbubxh8efGHrchRIFN0OjQbMb6GivSLrXVUQVkGbrlOBpFl2NQe+vAlEl13sEEyrXgeoxNYqTevdrKIx0M7kqPPc99Bm1kfTfX1GohOo/jj72kP/VOWhd6baSnXQbS80wuPNFlFD5j7sIJlRRoTrgZlY18HYdpf+5ghFVLkpA1eloz4QqumZUNUBXZ6r3CCZUrgFoL5w2TmqorlzU2P1yadhD1QIJlQYKSsCD92k3uRJf1XNtUPznuMiUUGlArD1Tuq0BcNShgwpXB7UhcINn1Xcl2f6yLqLKRe1b69DtidRGRgNpNxh161RlpVAnp4RK60EbI1su9z2c1R4qJb7udZW0uO8bjEIlVCoLv/5rsKmZNN1WUqNBlP88Ra4JVVRog6v1o9vBz5JP+9EATO/pykmDNG1sNIBXv+QSKiW6rk5ovWswE2w/2vD55RS5h6oFEir1KW6vUDAaS6i0zdJ3UygB8R9XP+8mC9S/6DAzfxkX2l64PTmunPS6mbZZUeWkdqg25cpJbUODO21rlOS5hCo4ANL7az24Q0dtOaUGCH45uT1UwQGC7W9SgwsNQrS97TXD25YemGEPRqESKm1D3B7FYGRKqFRX9bl0W5/THiqUZjmFPxDyI6o/0evqUCF/eRdRZadtqvbGu/GO2pS+h0t4XUKliSQlVJrgUEJlJ2uXXWXLTRMo2eyh0tEl7rZmzN16bKmESusteO6Wi8bWeWMJlSbMXH/i97/BUL/i+hbVe23LdFvtJN2h4IqoctM2SYNsTcxqz5/6MG2rlDS593Dfy/3VER3a1qkMGsZ8qb7Tb3Ou/WRKqPRcd1tjzXSnWhQqoVI/5ZLCYDRHQhUVGpfbsWCq33FlrL7J9bfpIqrstD3uOWVmQ3+p9a29iPY9Uu3bJVQ6hcUlVCpDlbO+rys79bN+2UXtoWr2hEqVIXjCnZIQtzHTLth0x4Rq95vdxZ5aqVGJhTo1DQS0MjT75u7XCggem6mOyR1G5jpbRT57QhQ6tMp1qPqrjlG7YRV6X+3F0WOuYmpQr+RE31kdozqaqBO8VYhqeOr43OFDfhQqodLu1OAeOlUinUOl20pO0s38aCCuvQn2WPYM68ge8nfFNYfcp04+eDK2yk6VXZ8hOPugBMJ/PReZ3lMJqz6bbmugrlkHdXr6zDahKqmvo24vhvYiaAOlDZpmsDSIzHTyYEsc8qdk1R2a50Kzbaov2pC6QzLTRaZD/jQAbGhzqU7NtTmVsf+dlDTbQyJTAzXXEakTyjQ4iSoXtXvtYdIATm1Z69ruyj9wiKdbp9q7qzqj5FUbVNUVN5GiY6n91w1G8DAS1SPVJ9c3+MsWKqFSaIAZ/F+TJppdztRnKewhfwcmLqIieMifCzsoOLDXRKH+QW1M/Ynb2GlA5gZo6SKqnBQaNLiNuvowTR5peZWP+jiVvzZCmjBSGSrp0LJKDNRu9PkybSyVnPmH/GU636cQCZU9zM4rJ4VNqALnm/ihPXTa26H22DXid/y0V0/rQWUZvEiPG7y50HZBA3LVbXduqgYumjjwX9NFpnJS/+WOHlBbUZ+q+qbtnrYbmk3X66u96zHbn6bWg2Z+tddA9TTq5HZFsD0pedP30fZLA/2obWkwCpVQKdmw7cm73x7yF3Fem8INPjWRGdUfKvzDzzQu8fcqB/sTHe6q+9QOMp1HFVV2qktqM2pDmmzR9krbUY0T1C5cQqWJC313rXONHZREa11rWbcHPF3YhCr1mu5/tx5UXu4IH3vIX6ZJjAIlVKp76Y4q8te5H40lVEo8tD5U13X6gbtf25fg+Wfalmt7qNtqG26ck89RSQpNcrp+QJ9BfZc9/DWVqKoPcN/L7d3Q5KP2amp8q+W0PXVHRqULvY6bjFOorIPn4gfrdLpTMQqVUKm/cJMIwVBCpQkB//5gaKIh055bRfCQPxf+dk6TNupP1RbdJIb6nUwTYFFlp7LW93FHu6mcdJ89jULnQOuQv9TnVl3VNlTJsybgtB7UX+p+tft0OYoLf3tbf8hf/bjJfQa9n/88FzknVEoi/MPHlL2rcbtOKl3oeRpoucNa/NCX1l4VrZTghlodkj+zpcqqL3lwN/TzDQ0uXUQVkEIF7c7V0mBDg3d9F3X02girA1OHqc+lDZIaoApUGzkdzqU9BFGNWgNIFXCmDrtQCZVmyf0rx6nD1kbZr+TB0PfSYDvdDJRCGyYNMjRYCn5PzeD7SaLKV+H2AqmSu0PT0kWmclFdsgP3vfUnr6oxul3zWv96f23MVDc0OFA90UZLjUavq+TOf00X+q46bMJPEl0UKqFSZ+wO+XOhuurqeTAhDYbqm5KtdHt7XWiGrb7NHezYtb78Q8T0WlpnKhd3nwY2ma7gk6lc3DkcCm2UlPRqwKoNg9apBkcaDGgPogYS2lCqnLScBr3pzot0ocfUjl25uxn7qD1whUyo0p0grD5G/ZY73yMUqfJVh6tBWXCvfTC0LjTD6R8zro3RIb/7knotlZM7T033qQ24SYV0kamctM7cZ1IfoM+gz6o+QTN5GlRq8KD2qUGZ6oT6Qh1OoXLK9L7qw1WuqoP6X/2CXkMbz3Tnx9rPU4iEKhWa5ffPZ1N/oP4h3TlACm1YG2tzKmOtF3euiAtNRgUnzPRd3WDDfQ7NcGbq4zOVk8rGbe/0Gpp41F4Hd5EmrVO9p76fZkvVxjQA1QSDyinTLLK+kyY53NEJ9giM1HrQc1xf7m9L/ShUQhU8RNiF1p/ajj2PJDC5EAwl9+q73NEP6UJJol47OOjXIZR+ktjQnwQGu7Z/CkzY+pGp7FyZ2/JJDdLVxrVdsoPH1P/abqkvU1+oclZ/qbqo76w9LX7CFwy/TmsbrvXgzknVe2qbrG1z1OFWhUqo7PnLV1xzyH2qg5pQ8MccwdD3197eqDGfbUsH2mWw39A23b9ojiau9BnchKGem+nCVJnKTWXixqqq90qYtK3Ve+r7aFugsYvWt/pHTWro/TVxoYF657rz0k5QK1Sn9Tp2z+GBOq1+XuNIl3zoO7gLw/jPVxQqoVJoUt3v87Rd1k6LqIkY9UcqA411o76nJux15FlwglRloiMXgpO6ev7BcX19Gav9ZZpEyVR2amOu77J7l1PjPJ3a4i5wYnOF1HpXu9b76ntqPKr+VP1lcG+TH6rTGn+4c8Lt2Dc1rlb5u/dsrE7nnFDpw9oVHbFhKnSoQ02XxQdDKynTpVczFVBrR6ESKpWHyiUquSt0aCMdOdA8EKrw7pyldBHXcsklodJl0y9I8xoulPBowsG/vzlCA4OoTtqFBviZBmGKuJaLH4VMqJRMpTv/s7nCXjQlQ9tQ+JMYfiSlnBS5DO4yJVR2guDAuQ4tERpIRSXLNlLbQ7tnLiIhUCSpnPzIKaGqjU6oFKrzmY4aKGSon0t3NdpgaFCUadJKkeSyK+Rl0zVojZosKXToKKXG6okmPvKdFIx75JpQZbpsur3g0CVXhO5vjtC2SolScIeIH24iwL8/GEkuu77pEqoB5ZUZNxBaKVGVWYdjaWYtGP7Mr2Y2g483pcA1KHHH4UZFXAtoSc4/7Hvo4WN+KKnyd8G60AyXXy5+UqwNXvBxf7Y2l1CZNDZgjGu55PrDvpf9+tXQawRDbSVqYKxZsOA693+tXkmSX26ZDn1pLNzen0wR13Lxo/2g3DY8jf2wrw4ziToPU0lxsAzSJaWa2Akuoz0X/jLZhtqx3z79SEo5aVuSy4+MNvbDviqjqEtSq/0EyyDdniPdl6nN5RKa/Yxq2y4SU05pot/BAUKjamvrGv1h30z9j9/PBX/zSKFZcX+ZqHFINpHps7hIbNnl2OYGNfbDvqnHoiZQNbPvl4t/xIvb2+7CP7oll9Dhy1HntLpIbLmlolOOP+x7doYJKIXKImovrPZ4BsvF3xOp0N6l4DLprsSYbWQaC7lIbNk9ox/2rXTFcjChWrZyVZM2MnGLuBbQvK23m/Xr17vV3qgp8xdkPEwgaRHHctH6LZ0y3V/1kVR+F9xav4u4WCKO5eKHyqli2gy/ODI6b/Zc2k8rxMTUYGpdDv3cqFlzKKcYhMpgxsKFfvFEUl8400uCkh6JLbsc29yVqxjzxSHU5qpnzPKLJ6PambPpL2MQaj/KnQ44mFB9/vnnpv3A+st0FkPEtYAGlJXbdZ2tV1591fSaMDn0OkmNOJaLzpN7eO+z/qqPpPIb3MjhEkmLOJaLHyqnR599zi+OjJ5/+Tem+4FLDhdDJKGcFL2Gl+bUzz370sumG+XU6tF34hTz6muv+cUTSWXcrzT6sPQkRlLLLtc2p2U7DBoSep2kRlLLrWtqu7b7hRf84snoqRdetM/zXyupkdSyU84UaHMHEyq5+KqrDzmRPckRxwIat2KNWbN2bXCVZ2VQavAedTJh0iJu5aL12jnH45dlbaocJ62MPskyaRG3cvFD5dQlx8MinN4l9Vfe9F8ziRH3clJUL7/GrFq9xi+GRmlASDm1XsxMrfuhFQ2Hr2Rt9Zo1ZvTV+R8qHrdIYtnV5Nnmll69wpRk+MHVJEUSy039Xfdhw/1iyUqPYSX0l60YypWUMwUcmlB9//33ZkBlVcbLQyYl4lZA5998u6muG2XXca727dtnG09jx6EmIeJULvaqQQMGm/965x1/lTdK5VgzapSZujX6CnZJijiVix8qp3apcnorj3KS91Lt5+zBw2g/LRDjttxqKmtq8+rn3n3vPdNp8FDKqRVC61wJrbY1uVJZj6irMxO3/CL0ukmMpJWdbXO1+bU5PWdg5QjGfK0QanPaQ/jOu+/6xZKVd1L95VmD6C9bI9RelCt5be7QhEr2799vBlWNMKWB67AnMeJUQGNWrDYjU8mU1m2+tm/fbgZV15pFEZe0TErEpVx08v855VXm/oce9ld11lSeSqrGXXPwkrxJjbiUix//v707WY0iisIA7NuIPoELZ2Mbk3SIQUFNJ8GdBqeNuFDcOoCNEqdMoo8g0ewN4spHyTZbr/cUBKTaJNhTquD74GwCXQX1c27V6XTfjpxO55y+fO0+p/BtYyNduN7ad9OHqldVc4pqPW8Xw1Qv69zXnFPj2oychliP8j1lana+uMd0KzKPoWq+h02NqlJ1yq71ol0MU730XLx28vpMuuKZb2gV69vZPMiuf9sox/Ff1vN6OXLVejnMitkoZqR/9FznQBVi6nr6sp1OTl1KN/76wcM6VRUCur32OY1evlJ8JKKbd4/KNjc308XJyfRg6WN68rPzfHWoA8/lx690681SOj02nr7n69mryPV1zje+R3B3rb7v8h14LuXKOS28XUpn+pRTiP5pTDTT/fer6XH5fDWpyuWU6+bypzQyfTm1X73q2zp3Pud0L+e03w5yVa0q5lSu2HH24crHNJbvKXHNexXZx70uPmK7sLr771NWveqQXWz6Ev9RjI/59aPn4hjP8jPfqanpdOODZ76BVV7P7rxbSefGJ/rScyGOM5KPd/f9yt67Nla46pBdzEIxE8VstEvP/Xug2rG1tVV85+dqq5UaObBjx0/Upg4fOdrxt2HVhfwwENuXLi4uFtewn7a3t9Py8nKanZtLF5vNjnNXvQ4yl9Gcy8zsXHH94jr2U+QcecfxI//yuateB5lLuUabg8tpp39a+qfnakxMpGutwa5zchpMjTUniy3PB9FjO2th3AOthf2toucG9GwRPPMNruK+FuvZIHru7/UyzlM+d9WrytlFH0Q/RF/s03N7D1QAAADsykAFAADQpd+HAAAAAAAAAAAAAAAAAAAAAAAAAAAAAAAAAAAAAAAAAAAAAAAAAAAAAAAAAAAAAAAAAAAAAAAAAAAAAAAAAAAAAAAAAAAAAAAAAAAAAAAAAAAAAAAAAAAAAAAAAAAAAAAAAAAAAAAAAAAAAAAAAAAAAAAAAAAAAAAAAAAAAAAAAAAAAAAAAAAAAAAAAAAAAAAAAAAAAAAAAAAAAAAAAAAAAAAAAAAAAAAAAAAAAAAAAAAAAAAAAAAAAAAAAAAAAAAAAAAAAAAAAAAAAAAAAAAAAAAAAAAAAAAAAAAAAAAAAAAAAAAAAAAAAAAAAAAAAAAAAAAAAAAAAAAAAAAAAAAAAAAAAAAAAAAAAAAAAAAAAAAAAAAAAAAAAAAAAAAAAAAAAAAAAAAAAAAAAAAAAAAAAAAAAAAAAAAAAAAAAAAAAAAAAAAAAAAAAAAAAAAAAAAAAAAAAAAAAAAAAAAAAAAAAAAAAAAAAAAAAAAAAAAAAAAAAAAAAAAAAAAAAAAAAAAAAAAAAAAAAAAAAAAAAAAAAAAAAAAAAAAAAAAAAAAAAAAAAAAAAAAAAAAAAAAAAAAAAAAAAAAAAAAAAAAAAAAAAAAAAAAAAAAAAAAAAAAAAAAAAAAAAAAAAAAAAAAAAAAAAAAAAAAAAAAAAAAAAAAAAAAAAAAAAAAAAAAAAAAAAAAAAAAAAAAAAAAAAAAAAAAAAAAAAAAAAAAAAAAAAAAAAAAAAAAAAAAAAAAAAAAAAAAAAAAAAAAAAAAAAAAAAAAAAAAAAAAAAAAAAAAAAAAAAAAAAAAAAAAAAAAAAAAAAAAAAAAAAAAAAAAAAAAAAAAAAAAAAAAAAAAAAAAAAAAAAAAAAAAAAAAAAAAAAAAAAAAAAAAAAAAAAAAAAAAAAAAAAAAAAAAAAAAAAAAAAAAAAAAAAAAAAAAAAAAAAAAAAAAAAAAAAAAAAAAAAAAAAAAAAAAAAAAAAAAAAAAAAAAAAAAAAAAAAAAAAAAAAAAAAAAAAAAAAAAAAAAAAAAAAAAAAAAAAAAAAAAAAAAAAAAAAAAAAAAAAAAAAAAAAAAAAAAAAAAAAAAAAAAAAAAAAACAuvgDSP20zuKajjgAAAAASUVORK5CYII=;connectable=0;allowArrows=0;" vertex="1" parent="1">
          <mxGeometry x="30" y="30" width="852" height="659" as="geometry" />
        </mxCell>
        <mxCell id="X-tn8pklyj-x3zhftfe8-2" value="" style="endArrow=classic;html=1;rounded=0;strokeColor=#000000;entryX=0.387;entryY=0.455;entryDx=0;entryDy=0;entryPerimeter=0;exitX=0.469;exitY=0.395;exitDx=0;exitDy=0;exitPerimeter=0;dashed=1;" edge="1" parent="1" source="X-tn8pklyj-x3zhftfe8-1" target="X-tn8pklyj-x3zhftfe8-1">
          <mxGeometry width="50" height="50" relative="1" as="geometry">
            <mxPoint x="390" y="410" as="sourcePoint" />
            <mxPoint x="440" y="360" as="targetPoint" />
            <Array as="points">
              <mxPoint x="390" y="300" />
            </Array>
          </mxGeometry>
        </mxCell>
        <mxCell id="X-tn8pklyj-x3zhftfe8-3" value="" style="endArrow=classic;html=1;rounded=0;strokeColor=#000000;entryX=0.211;entryY=0.531;entryDx=0;entryDy=0;entryPerimeter=0;exitX=0.469;exitY=0.395;exitDx=0;exitDy=0;exitPerimeter=0;dashed=1;" edge="1" parent="1" target="X-tn8pklyj-x3zhftfe8-1">
          <mxGeometry width="50" height="50" relative="1" as="geometry">
            <mxPoint x="320" y="330" as="sourcePoint" />
            <mxPoint x="250" y="370" as="targetPoint" />
            <Array as="points">
              <mxPoint x="270" y="340" />
            </Array>
          </mxGeometry>
        </mxCell>
        <mxCell id="X-tn8pklyj-x3zhftfe8-4" value="" style="endArrow=classic;html=1;rounded=0;strokeColor=#000000;entryX=0.387;entryY=0.455;entryDx=0;entryDy=0;entryPerimeter=0;exitX=0.469;exitY=0.395;exitDx=0;exitDy=0;exitPerimeter=0;dashed=1;" edge="1" parent="1">
          <mxGeometry width="50" height="50" relative="1" as="geometry">
            <mxPoint x="160" y="380" as="sourcePoint" />
            <mxPoint x="90" y="420" as="targetPoint" />
            <Array as="points">
              <mxPoint x="110" y="390" />
            </Array>
          </mxGeometry>
        </mxCell>
        <mxCell id="X-tn8pklyj-x3zhftfe8-5" value="" style="endArrow=classic;html=1;rounded=0;strokeColor=#0000FF;exitX=0.094;exitY=0.607;exitDx=0;exitDy=0;exitPerimeter=0;strokeWidth=3;" edge="1" parent="1" source="X-tn8pklyj-x3zhftfe8-1">
          <mxGeometry width="50" height="50" relative="1" as="geometry">
            <mxPoint x="390" y="410" as="sourcePoint" />
            <mxPoint x="170" y="430" as="targetPoint" />
          </mxGeometry>
        </mxCell>
        <mxCell id="X-tn8pklyj-x3zhftfe8-7" value="" style="endArrow=classic;html=1;rounded=0;strokeColor=#0000FF;strokeWidth=3;" edge="1" parent="1">
          <mxGeometry width="50" height="50" relative="1" as="geometry">
            <mxPoint x="190" y="430" as="sourcePoint" />
            <mxPoint x="190" y="390" as="targetPoint" />
          </mxGeometry>
        </mxCell>
        <mxCell id="X-tn8pklyj-x3zhftfe8-9" value="" style="endArrow=classic;html=1;rounded=0;strokeColor=#0000FF;strokeWidth=3;" edge="1" parent="1">
          <mxGeometry width="50" height="50" relative="1" as="geometry">
            <mxPoint x="370" y="430" as="sourcePoint" />
            <mxPoint x="360" y="390" as="targetPoint" />
          </mxGeometry>
        </mxCell>
        <mxCell id="X-tn8pklyj-x3zhftfe8-10" value="" style="endArrow=classic;html=1;rounded=0;strokeColor=#0000FF;exitX=0.094;exitY=0.607;exitDx=0;exitDy=0;exitPerimeter=0;entryX=0.153;entryY=0.607;entryDx=0;entryDy=0;entryPerimeter=0;strokeWidth=3;" edge="1" parent="1">
          <mxGeometry width="50" height="50" relative="1" as="geometry">
            <mxPoint x="310" y="430" as="sourcePoint" />
            <mxPoint x="360" y="430" as="targetPoint" />
          </mxGeometry>
        </mxCell>
        <mxCell id="X-tn8pklyj-x3zhftfe8-12" value="" style="endArrow=classic;html=1;rounded=0;strokeColor=#0000FF;strokeWidth=3;" edge="1" parent="1">
          <mxGeometry width="50" height="50" relative="1" as="geometry">
            <mxPoint x="200" y="380" as="sourcePoint" />
            <mxPoint x="280" y="430" as="targetPoint" />
          </mxGeometry>
        </mxCell>
        <mxCell id="X-tn8pklyj-x3zhftfe8-13" value="" style="endArrow=classic;html=1;rounded=0;strokeColor=#0000FF;strokeWidth=3;" edge="1" parent="1">
          <mxGeometry width="50" height="50" relative="1" as="geometry">
            <mxPoint x="374" y="380" as="sourcePoint" />
            <mxPoint x="480" y="430" as="targetPoint" />
          </mxGeometry>
        </mxCell>
        <mxCell id="X-tn8pklyj-x3zhftfe8-14" value="" style="endArrow=classic;html=1;rounded=0;strokeColor=#0000FF;exitX=0.094;exitY=0.607;exitDx=0;exitDy=0;exitPerimeter=0;entryX=0.153;entryY=0.607;entryDx=0;entryDy=0;entryPerimeter=0;strokeWidth=3;" edge="1" parent="1">
          <mxGeometry width="50" height="50" relative="1" as="geometry">
            <mxPoint x="530" y="430" as="sourcePoint" />
            <mxPoint x="580" y="430" as="targetPoint" />
          </mxGeometry>
        </mxCell>
        <mxCell id="X-tn8pklyj-x3zhftfe8-15" value="" style="endArrow=classic;html=1;rounded=0;strokeColor=#0000FF;strokeWidth=3;" edge="1" parent="1">
          <mxGeometry width="50" height="50" relative="1" as="geometry">
            <mxPoint x="590" y="440" as="sourcePoint" />
            <mxPoint x="580" y="390" as="targetPoint" />
          </mxGeometry>
        </mxCell>
        <mxCell id="X-tn8pklyj-x3zhftfe8-16" value="" style="endArrow=classic;html=1;rounded=0;strokeColor=#0000FF;strokeWidth=3;" edge="1" parent="1">
          <mxGeometry width="50" height="50" relative="1" as="geometry">
            <mxPoint x="590" y="380" as="sourcePoint" />
            <mxPoint x="696" y="430" as="targetPoint" />
          </mxGeometry>
        </mxCell>
        <mxCell id="X-tn8pklyj-x3zhftfe8-17" value="" style="endArrow=classic;html=1;rounded=0;strokeColor=#0000FF;exitX=0.094;exitY=0.607;exitDx=0;exitDy=0;exitPerimeter=0;entryX=0.153;entryY=0.607;entryDx=0;entryDy=0;entryPerimeter=0;strokeWidth=3;" edge="1" parent="1">
          <mxGeometry width="50" height="50" relative="1" as="geometry">
            <mxPoint x="740" y="430" as="sourcePoint" />
            <mxPoint x="790" y="430" as="targetPoint" />
          </mxGeometry>
        </mxCell>
        <mxCell id="X-tn8pklyj-x3zhftfe8-18" value="" style="endArrow=classic;html=1;rounded=0;strokeColor=#000000;dashed=1;" edge="1" parent="1">
          <mxGeometry width="50" height="50" relative="1" as="geometry">
            <mxPoint x="210" y="380" as="sourcePoint" />
            <mxPoint x="300" y="380" as="targetPoint" />
          </mxGeometry>
        </mxCell>
        <mxCell id="X-tn8pklyj-x3zhftfe8-19" value="" style="endArrow=classic;html=1;rounded=0;strokeColor=#000000;dashed=1;" edge="1" parent="1">
          <mxGeometry width="50" height="50" relative="1" as="geometry">
            <mxPoint x="380" y="380" as="sourcePoint" />
            <mxPoint x="510" y="380" as="targetPoint" />
          </mxGeometry>
        </mxCell>
        <mxCell id="X-tn8pklyj-x3zhftfe8-21" value="" style="endArrow=classic;html=1;rounded=0;strokeColor=#000000;dashed=1;" edge="1" parent="1">
          <mxGeometry width="50" height="50" relative="1" as="geometry">
            <mxPoint x="590" y="380" as="sourcePoint" />
            <mxPoint x="680" y="380" as="targetPoint" />
          </mxGeometry>
        </mxCell>
        <mxCell id="X-tn8pklyj-x3zhftfe8-22" value="" style="endArrow=classic;html=1;rounded=0;strokeColor=#0000FF;strokeWidth=3;" edge="1" parent="1">
          <mxGeometry width="50" height="50" relative="1" as="geometry">
            <mxPoint x="810" y="430" as="sourcePoint" />
            <mxPoint x="740" y="390" as="targetPoint" />
          </mxGeometry>
        </mxCell>
        <mxCell id="X-tn8pklyj-x3zhftfe8-23" value="" style="endArrow=classic;html=1;rounded=0;strokeColor=#0000FF;strokeWidth=3;" edge="1" parent="1">
          <mxGeometry width="50" height="50" relative="1" as="geometry">
            <mxPoint x="690" y="380" as="sourcePoint" />
            <mxPoint x="350" y="340" as="targetPoint" />
          </mxGeometry>
        </mxCell>
        <mxCell id="X-tn8pklyj-x3zhftfe8-24" value="" style="endArrow=classic;html=1;rounded=0;strokeColor=#0000FF;exitX=0.094;exitY=0.607;exitDx=0;exitDy=0;exitPerimeter=0;strokeWidth=3;" edge="1" parent="1">
          <mxGeometry width="50" height="50" relative="1" as="geometry">
            <mxPoint x="370" y="340" as="sourcePoint" />
            <mxPoint x="520" y="340" as="targetPoint" />
          </mxGeometry>
        </mxCell>
        <mxCell id="X-tn8pklyj-x3zhftfe8-26" value="" style="endArrow=classic;html=1;rounded=0;strokeColor=#000000;dashed=1;" edge="1" parent="1">
          <mxGeometry width="50" height="50" relative="1" as="geometry">
            <mxPoint x="110" y="290" as="sourcePoint" />
            <mxPoint x="240" y="290" as="targetPoint" />
          </mxGeometry>
        </mxCell>
        <mxCell id="X-tn8pklyj-x3zhftfe8-27" value="ordering" style="edgeLabel;html=1;align=center;verticalAlign=middle;resizable=0;points=[];" vertex="1" connectable="0" parent="X-tn8pklyj-x3zhftfe8-26">
          <mxGeometry x="0.2463" y="-1" relative="1" as="geometry">
            <mxPoint x="-11" y="-11" as="offset" />
          </mxGeometry>
        </mxCell>
      </root>
    </mxGraphModel>
  </diagram>
</mxfile>
